PathFileType	4	(X/Y/Z)	15_2_38_p0_0-723_filt_butterworth.trc
DataRate	CameraRate	NumFrames	NumMarkers	Units	OrigDataRate	OrigDataStartFrame	OrigNumFrames
60.0	60.0	5	27	m	60.0	180	723
Frame#	Time	RHip			RKnee			RAnkle			RBigToe			RSmallToe			RHeel			LHip			LKnee			LAnkle			LBigToe			LSmallToe			LHeel			Neck			Head			Nose			RShoulder			RElbow			RWrist			RThumb			RIndex			RPinky			LShoulder			LElbow			LWrist			LThumb			LIndex			LPinky			
		X1	Y1	Z1	X2	Y2	Z2	X3	Y3	Z3	X4	Y4	Z4	X5	Y5	Z5	X6	Y6	Z6	X7	Y7	Z7	X8	Y8	Z8	X9	Y9	Z9	X10	Y10	Z10	X11	Y11	Z11	X12	Y12	Z12	X13	Y13	Z13	X14	Y14	Z14	X15	Y15	Z15	X16	Y16	Z16	X17	Y17	Z17	X18	Y18	Z18	X19	Y19	Z19	X20	Y20	Z20	X21	Y21	Z21	X22	Y22	Z22	X23	Y23	Z23	X24	Y24	Z24	X25	Y25	Z25	X26	Y26	Z26	X27	Y27	Z27	
180	3.0	0.25879928924137136	0.33788308783732357	1.0886487864865655	0.27158256367932454	0.24330927304122082	1.516399166765062	0.2728436243810467	0.21103318103938243	1.9111773233913703	0.24983469241715064	0.03034483190763315	1.9099637592616463	0.32025547352311357	0.057849512935769544	1.905984273342505	0.25207824835458353	0.26727254647469817	1.97975352295391	0.020926362262044536	0.34674285108193986	1.118563893752132	0.03632341396042198	0.2521947676103518	1.5407617161603708	0.05113385400399091	0.23150586351202124	1.923161414036387	0.057343811889846906	0.07146417056435052	1.9368308570346968	0.011534817362593396	0.09062378962585503	1.943016760182894	0.06473271982452479	0.26763332563385667	1.9767439752682205	0.08048262140748288	0.4502447280405684	0.5460168114489293	0.09362369775466318	0.4459602679953264	0.2907206140870484	0.08249868914391749	0.35544324228944046	0.3935535987099243	0.2410785749265651	0.4107853275166432	0.5918170299415315	0.30952834418984954	0.36280129126477156	0.8274471846211859	0.19539751269489022	0.18977098167901219	0.9809295528736327	0.11199957062603852	0.17750123491725395	1.050364077056057	0.10746255871044062	0.18260857460265031	1.0743084856720415	0.11554002196274944	0.1924610728439876	1.082277120961859	-0.059391478051158665	0.39972765851976577	0.6342045543803285	-0.0646049000785532	0.326700081999973	0.8537374583514483	0.036005397468201306	0.1886249304185659	0.9862760095319175	0.11611888386639115	0.16448314036134123	1.021205350286818	0.12102277224217527	0.16084382062578495	1.0593638611683194	0.11538653996769549	0.18389925394507226	1.0746389014359303
181	3.0166666666666666	0.2583810773558696	0.33791531716503387	1.0881338051220917	0.2712518844074582	0.24315942557983067	1.5171975730880176	0.2721417853510409	0.21490842243802083	1.9135166112154058	0.24971968588980753	0.03018693909206743	1.9096419723769085	0.31968439880090677	0.05674076105318056	1.9041746344234296	0.2518342813504816	0.26803103101227294	1.9802841598178162	0.02159589495159151	0.349358822250996	1.1199588696907614	0.0361432459906588	0.25232731764574023	1.5404998745456757	0.05113778568695753	0.2314903340675259	1.9231835477266184	0.05536535911148001	0.07554527354998482	1.9393150318839854	0.01039480340138045	0.09067347389710323	1.9433104394823186	0.06458551059130828	0.2677973784325514	1.9762226026690632	0.07663911011396016	0.4503605955561168	0.5443166797791196	0.0851802708400135	0.44075536869996845	0.2909069518043621	0.07606947737912953	0.3529356859465197	0.3927395491728762	0.2402001060851385	0.41076337619871417	0.5895337699841879	0.3105654404418894	0.358079264533986	0.8227673250638515	0.19470371549403542	0.18880863605244821	0.9793451764494758	0.11036656617304236	0.17445108069604737	1.0495563871070284	0.10717896838841608	0.17976135962439552	1.0713744809337775	0.11444569623232081	0.19014742137029855	1.0803499265489491	-0.05902158005162973	0.3975930998403875	0.636323463132542	-0.064617621615327	0.32599514648792555	0.8539729803462432	0.03499217620204828	0.18890811581157235	0.9875280890763041	0.11617783022252554	0.16020454067120557	1.0191202095598177	0.12157246785061007	0.16047853642693644	1.0567499783737995	0.11537035938072666	0.18338651842048104	1.074970601803622
182	3.033333333333333	0.2581218396995237	0.33792754680579057	1.0913484406764555	0.27097429424474895	0.24311249307450977	1.5175501480232905	0.271582859015846	0.21655811921976195	1.9139659270824214	0.24965521186242928	0.03012219407023848	1.9093493542135702	0.3180160762116237	0.05374166210485872	1.902709821781336	0.25063852222543875	0.2690104433699143	1.9845993828448034	0.02238603075988265	0.3527550813917626	1.123657086183701	0.03598862369421472	0.25232851577727633	1.541398330137859	0.05111081352053793	0.2314746952425641	1.9232643274808177	0.054350143540509765	0.07855723909103753	1.9414059368694707	0.010370451535874379	0.0907041977000953	1.9434497529093324	0.06472446730361352	0.26792737142905854	1.9766934898205897	0.07400755235976508	0.4494044442330377	0.5430015313668601	0.07449412775090863	0.4375564328987873	0.29212394947507614	0.07102968532775351	0.35359992213939095	0.3934487863411066	0.2388413706251823	0.4104124403697623	0.588116065817563	0.3117227265269528	0.3516317249052416	0.8202620769692962	0.1930329347827291	0.18879794305556166	0.9788152583901768	0.10897576845854758	0.1704503203221783	1.0484497618824566	0.10707575132146806	0.1760144274059367	1.0691605800645068	0.11312523572570973	0.1870849461341847	1.0792726828956192	-0.058339528055656564	0.39485760639067324	0.6375158485364961	-0.06503605781628521	0.3251064330419787	0.8547711197194796	0.033419621849933676	0.18813340951099655	0.9889052107645931	0.11666093766335797	0.15691608192114687	1.0177699683917587	0.12249532279378586	0.1597549816199748	1.054735557832196	0.11512282739459877	0.18243729223140584	1.0760966054125918
183	3.05	0.2577876521749186	0.3382704792705401	1.096539683323727	0.2708440331131276	0.2428266456280298	1.518061501034552	0.2708694086350371	0.2158124608452766	1.9129661950442856	0.24959753201514392	0.030133014991415824	1.9091865726408912	0.315905250336273	0.05087511900449218	1.9009264995176793	0.24858614406354834	0.2699811948452926	1.9901512352476871	0.02343967628281474	0.35526030353541166	1.1289654606265798	0.035994557789336926	0.2520638967919108	1.5437659661791936	0.05111425116453784	0.23150171179623397	1.923387524498526	0.05474896811587426	0.07993610565975354	1.9424345187059628	0.011547134149135224	0.09077672959560298	1.9429767575301906	0.06553964139012038	0.26807562389045003	1.9787038972624627	0.07239170370882272	0.4466810950559899	0.5428143376001966	0.06285682357172527	0.43940363820788575	0.29482291186345616	0.06776505109440205	0.355418951413722	0.395494621114588	0.23743366541798397	0.4098751782857056	0.5880558653861084	0.3121131962481276	0.34425317833380675	0.819989259832772	0.19130680944586362	0.18810313094310072	0.9787104206597916	0.10870795147329258	0.16723135885249896	1.04765045321768	0.10715045433886643	0.17297271127177083	1.0689341830383947	0.1121913012277348	0.1846022508967913	1.0792727015070789	-0.05810246079419347	0.3933084033959714	0.6384847542640738	-0.06611633918274314	0.32435199930014197	0.8563625435309725	0.031112449844279258	0.18699070610394458	0.990187739873761	0.11711719272453458	0.15587452675641955	1.0174120596807603	0.12269302522695555	0.15916447738863582	1.0543417689202188	0.11438636879073215	0.18069504985038756	1.0773133012543155
184	3.066666666666667	0.25723131733122784	0.3394355430241649	1.0999548894004105	0.27078832871986336	0.24221764857335787	1.5195848399830925	0.2694588528252879	0.21292414992784373	1.9109194227248771	0.24945400888972585	0.03003692565627929	1.9094176224740793	0.3144406825541347	0.04936813139633884	1.8993968473030407	0.24620162739928864	0.2702267221518921	1.9926925571579501	0.024328432465080624	0.3560700027117082	1.133871189715815	0.036160500531580916	0.2514677240235951	1.5466103632888073	0.05127266118042386	0.23162382332472872	1.9234212183640633	0.055761573140512916	0.0803812653248865	1.9432990461040365	0.013498039997998115	0.0910183497183642	1.9414240875670985	0.0670930425147463	0.26830360999926606	1.9816890692909521	0.07097865107674854	0.442565031552717	0.5433517555120756	0.05183571064239383	0.44623367346548054	0.29863235867431065	0.06575321590047593	0.35645939257848325	0.3978090560796681	0.2366459904258647	0.40939504027138335	0.5893558123155999	0.3110287943852182	0.33689393357466846	0.8206679172861302	0.19054581577140078	0.18560844383817418	0.9789981780820238	0.10923461109717196	0.16569816469068605	1.0474382965873428	0.10733794361337287	0.1713354159152421	1.070661116558052	0.11189896096696968	0.1832734402998165	1.0797137884002805	-0.058389365110285404	0.39304491520067436	0.6398517743080476	-0.06781989499917312	0.3246123472690505	0.8586306490995732	0.028172485790957387	0.18605547592395244	0.9921736117706467	0.11625301525871107	0.1563489014450977	1.018259810934379	0.12166323515075256	0.1589529774484179	1.0559472147610327	0.11332223403817472	0.1778753051390167	1.0783695551671033
